<svg width="16" height="16" viewBox="0 0 16 16" fill="none" xmlns="http://www.w3.org/2000/svg">
<path fill-rule="evenodd" clip-rule="evenodd" d="M8 16C12.4183 16 16 12.4183 16 8C16 3.58172 12.4183 0 8 0C3.58172 0 0 3.58172 0 8C0 12.4183 3.58172 16 8 16ZM7.99872 14.0503C11.3403 14.0503 14.0491 11.3414 14.0491 7.99986C14.0491 4.65831 11.3403 1.94944 7.99872 1.94944C4.65716 1.94944 1.9483 4.65831 1.9483 7.99986C1.9483 11.3414 4.65716 14.0503 7.99872 14.0503ZM7.99872 14.7225C11.7116 14.7225 14.7214 11.7127 14.7214 7.99986C14.7214 4.28702 11.7116 1.27717 7.99872 1.27717C4.28588 1.27717 1.27603 4.28702 1.27603 7.99986C1.27603 11.7127 4.28588 14.7225 7.99872 14.7225ZM8.20809 4.52259L9.16427 6.46001C9.19396 6.52018 9.25136 6.56188 9.31776 6.57153L11.4558 6.88221C11.623 6.90651 11.6898 7.11199 11.5688 7.22993L10.0984 8.6632C10.0023 8.75686 9.95849 8.89182 9.98118 9.02408L10.3283 11.0479C10.3568 11.2144 10.1821 11.3414 10.0325 11.2628L8.12015 10.2574C8.06076 10.2262 7.98981 10.2262 7.93042 10.2574L6.01807 11.2628C5.86851 11.3414 5.69372 11.2144 5.72228 11.0479L6.08751 8.91844C6.09885 8.85231 6.07693 8.78484 6.02888 8.738L4.48175 7.22993C4.36076 7.11199 4.42753 6.90651 4.59473 6.88221L6.73281 6.57153C6.79921 6.56188 6.85661 6.52018 6.8863 6.46001L7.84248 4.52259C7.91726 4.37107 8.13331 4.37107 8.20809 4.52259Z" fill="#FFD60A"/>
</svg>
