<svg width="16" height="16" viewBox="0 0 16 16" fill="none" xmlns="http://www.w3.org/2000/svg">
<path fill-rule="evenodd" clip-rule="evenodd" d="M12.6566 10.9615L14.9841 4.23151C15.007 4.15539 15.0052 4.07483 14.9789 3.99963C14.9526 3.92443 14.903 3.85782 14.836 3.80791C14.769 3.75801 14.6876 3.72695 14.6016 3.71851C14.5156 3.71008 14.4289 3.72463 14.3518 3.76041L10.5812 5.74754L8.38943 2.28689C8.35134 2.22334 8.29522 2.17032 8.22697 2.13339C8.15872 2.09645 8.08084 2.07697 8.00151 2.07697C7.92217 2.07697 7.84429 2.09645 7.77604 2.13339C7.70779 2.17032 7.65168 2.22334 7.61359 2.28689L5.43735 5.74754L1.66675 3.76041C1.58929 3.72019 1.50042 3.70207 1.41158 3.70839C1.32274 3.71471 1.23802 3.74518 1.16831 3.79587C1.09861 3.84655 1.04713 3.91514 1.0205 3.99278C0.993878 4.07043 0.993327 4.15358 1.01892 4.23151L3.34645 10.9615H12.6566ZM12.3838 12.4423H3.47473V13.9231H12.3838V12.4423Z" fill="#A379FF"/>
</svg>
